<svg xmlns="http://www.w3.org/2000/svg" width="41.2" height="41.2" viewBox="0 0 41.2 41.2">
  <g id="album_icon" data-name="album icon" transform="translate(-76.4 -1453.4)">
    <rect id="사각형_308" data-name="사각형 308" width="40" height="40" transform="translate(77 1454)" fill="#fff" opacity="0"/>
    <g id="그룹_2" data-name="그룹 2" transform="translate(76 1453)">
      <path id="패스_16" data-name="패스 16" d="M36.556,41H5.444A4.45,4.45,0,0,1,1,36.556V5.444A4.45,4.45,0,0,1,5.444,1H36.556A4.45,4.45,0,0,1,41,5.444V36.556A4.45,4.45,0,0,1,36.556,41ZM5.444,3.963A1.483,1.483,0,0,0,3.963,5.444V36.556a1.483,1.483,0,0,0,1.481,1.481H36.556a1.483,1.483,0,0,0,1.481-1.481V5.444a1.483,1.483,0,0,0-1.481-1.481Z" fill="#999" stroke="#fff" stroke-width="1.2"/>
      <path id="패스_17" data-name="패스 17" d="M10.492,33.729H9.351a4.3,4.3,0,0,1-3.361-1.513,4.44,4.44,0,0,1-.914-3.646,5.723,5.723,0,0,1,5.48-4.644h2.529V9.3A3.772,3.772,0,0,1,16.6,5.548l12.539-.836a3.77,3.77,0,0,1,4.013,3.753l-.01,16.381a4.721,4.721,0,0,1-.067.822,5.724,5.724,0,0,1-5.48,4.64H26.45A4.292,4.292,0,0,1,23.089,28.8a4.44,4.44,0,0,1-.914-3.646,5.723,5.723,0,0,1,5.48-4.644h2.53v-5.2a.792.792,0,0,0-.253-.584.822.822,0,0,0-.6-.215l-12.539.836a.8.8,0,0,0-.745.8V28.255a1.521,1.521,0,0,1-.039.341,3.177,3.177,0,0,1-.037.49,5.724,5.724,0,0,1-5.481,4.643Zm.065-6.84a2.761,2.761,0,0,0-2.563,2.194,1.474,1.474,0,0,0,.268,1.228,1.369,1.369,0,0,0,1.09.453h1.141a2.761,2.761,0,0,0,2.563-2.2c.007-.163.013-1,.016-1.681H10.557Zm17.1-3.419a2.761,2.761,0,0,0-2.563,2.2,1.474,1.474,0,0,0,.268,1.228,1.369,1.369,0,0,0,1.09.453h1.141a2.761,2.761,0,0,0,2.563-2.194,2.024,2.024,0,0,0,.021-.323l.006-1.359H27.656Zm1.733-15.8h-.056l-12.539.837a.8.8,0,0,0-.745.8v3.163a3.906,3.906,0,0,1,.548-.077l12.539-.836a3.711,3.711,0,0,1,1.049.077V8.465a.793.793,0,0,0-.8-.8ZM16.7,7.027h0Z" transform="translate(1.926 1.784)" fill="#999" stroke="#fff" stroke-width="1.2"/>
    </g>
  </g>
</svg>
