<svg xmlns="http://www.w3.org/2000/svg" width="40" height="40" viewBox="0 0 40 40">
  <g id="home_icon" data-name="home icon" transform="translate(-77 -1454)">
    <rect id="사각형_308" data-name="사각형 308" width="40" height="40" transform="translate(77 1454)" fill="#fff" opacity="0"/>
    <path id="패스_1" data-name="패스 1" d="M12.365,34.866v-5.7a2.649,2.649,0,0,1,2.645-2.636h5.361a2.649,2.649,0,0,1,2.662,2.636h0v5.714a2.275,2.275,0,0,0,2.234,2.264H28.84a6.419,6.419,0,0,0,6.451-6.386h0v-16.2A4.531,4.531,0,0,0,33.5,11.02L21.282,1.273a5.907,5.907,0,0,0-7.326,0L1.787,11.038A4.5,4.5,0,0,0,0,14.576V30.762a6.419,6.419,0,0,0,6.451,6.386h3.574a2.294,2.294,0,0,0,2.305-2.282h0" transform="translate(79.5 1455.5)" fill="none" stroke="#999" stroke-linecap="round" stroke-linejoin="round" stroke-width="1.5" fill-rule="evenodd"/>
  </g>
</svg>
