<svg xmlns="http://www.w3.org/2000/svg" width="40" height="40" viewBox="0 0 40 40">
  <g id="user_icon" data-name="user icon" transform="translate(-77 -1454)">
    <rect id="사각형_308" data-name="사각형 308" width="40" height="40" transform="translate(77 1454)" fill="#fff" opacity="0"/>
    <g id="그룹_3" data-name="그룹 3" transform="translate(62.35 1438.606)">
      <path id="패스_20" data-name="패스 20" d="M41.94,37.534A9.767,9.767,0,1,0,32.2,27.74,9.742,9.742,0,0,0,41.94,37.534Zm0-16.966a7.172,7.172,0,1,1-7.172,7.225A7.172,7.172,0,0,1,41.94,20.569Z" transform="translate(-7.344)" fill="#999" stroke="#fff" stroke-linejoin="round" stroke-width="0.7"/>
      <path id="패스_21" data-name="패스 21" d="M17.684,71.24H51.616A1.3,1.3,0,0,0,52.9,69.956,12.288,12.288,0,0,0,40.644,57.7H28.656A12.288,12.288,0,0,0,16.4,69.956,1.3,1.3,0,0,0,17.684,71.24ZM28.656,60.269H40.644a9.652,9.652,0,0,1,9.58,8.4H19.076A9.652,9.652,0,0,1,28.656,60.269Z" transform="translate(0 -18.453)" fill="#999" stroke="#fff" stroke-linejoin="round" stroke-width="0.7"/>
    </g>
  </g>
</svg>
