<svg xmlns="http://www.w3.org/2000/svg" width="80" height="80" viewBox="0 0 80 80">
  <path id="QR" d="M26.455,73.727H11.909a3.636,3.636,0,0,1-3.636-3.636V55.545a3.636,3.636,0,0,0-7.273,0V70.091A10.909,10.909,0,0,0,11.909,81H26.455a3.636,3.636,0,1,0,0-7.273ZM77.364,51.909a3.636,3.636,0,0,0-3.636,3.636V70.091a3.636,3.636,0,0,1-3.636,3.636H55.545a3.636,3.636,0,1,0,0,7.273H70.091A10.909,10.909,0,0,0,81,70.091V55.545A3.636,3.636,0,0,0,77.364,51.909ZM70.091,1H55.545a3.636,3.636,0,0,0,0,7.273H70.091a3.636,3.636,0,0,1,3.636,3.636V26.455a3.636,3.636,0,1,0,7.273,0V11.909A10.909,10.909,0,0,0,70.091,1ZM4.636,30.091a3.636,3.636,0,0,0,3.636-3.636V11.909a3.636,3.636,0,0,1,3.636-3.636H26.455a3.636,3.636,0,0,0,0-7.273H11.909A10.909,10.909,0,0,0,1,11.909V26.455A3.636,3.636,0,0,0,4.636,30.091ZM33.727,15.545H19.182a3.636,3.636,0,0,0-3.636,3.636V33.727a3.636,3.636,0,0,0,3.636,3.636H33.727a3.636,3.636,0,0,0,3.636-3.636V19.182A3.636,3.636,0,0,0,33.727,15.545ZM30.091,30.091H22.818V22.818h7.273Zm18.182,7.273H62.818a3.636,3.636,0,0,0,3.636-3.636V19.182a3.636,3.636,0,0,0-3.636-3.636H48.273a3.636,3.636,0,0,0-3.636,3.636V33.727A3.636,3.636,0,0,0,48.273,37.364Zm3.636-14.545h7.273v7.273H51.909ZM33.727,44.636H19.182a3.636,3.636,0,0,0-3.636,3.636V62.818a3.636,3.636,0,0,0,3.636,3.636H33.727a3.636,3.636,0,0,0,3.636-3.636V48.273A3.636,3.636,0,0,0,33.727,44.636ZM30.091,59.182H22.818V51.909h7.273Zm18.182-3.636a3.636,3.636,0,0,0,3.636-3.636,3.636,3.636,0,0,0,0-7.273H48.273a3.636,3.636,0,0,0-3.636,3.636v3.636A3.636,3.636,0,0,0,48.273,55.545ZM62.818,44.636a3.636,3.636,0,0,0-3.636,3.636V59.182a3.636,3.636,0,1,0,0,7.273h3.636a3.636,3.636,0,0,0,3.636-3.636V48.273A3.636,3.636,0,0,0,62.818,44.636ZM48.273,59.182a3.636,3.636,0,1,0,3.636,3.636A3.636,3.636,0,0,0,48.273,59.182Z" transform="translate(-1 -1)" fill="#ee6f2e"/>
</svg>
