<svg xmlns="http://www.w3.org/2000/svg" width="52" height="52" viewBox="0 0 52 52">
  <g id="그룹_153" data-name="그룹 153" transform="translate(-77 -1224)">
    <rect id="사각형_24522" data-name="사각형 24522" width="52" height="52" transform="translate(77 1224)" fill="#fff" opacity="0"/>
    <path id="패스_70" data-name="패스 70" d="M40.647,7.449H32.719a.991.991,0,1,0,0,1.982h6.937V33.213h-20.4l3.263-3.263a.991.991,0,0,0-1.4-1.4L16.163,33.5h0a.99.99,0,0,0,0,1.4l4.955,4.955a.991.991,0,0,0,1.4-1.4l-3.263-3.263H40.648a.99.99,0,0,0,.99-.991V8.438A.99.99,0,0,0,40.647,7.449ZM8.937,33.213H3.982V9.43h20.4l-3.263,3.263a.991.991,0,1,0,1.4,1.4L27.474,9.14h0a.991.991,0,0,0,0-1.4L22.519,2.784a.991.991,0,0,0-1.4,1.4l3.263,3.263H2.99A.99.99,0,0,0,2,8.44V34.2a.99.99,0,0,0,.991.99H8.937a.991.991,0,1,0,0-1.982Z" transform="translate(81.181 1228.672)" fill="#fff"/>
  </g>
</svg>
