<svg xmlns="http://www.w3.org/2000/svg" width="40" height="40" viewBox="0 0 40 40">
  <g id="shop_icon" data-name="shop icon" transform="translate(-77 -1454)">
    <rect id="사각형_308" data-name="사각형 308" width="40" height="40" transform="translate(77 1454)" fill="#fff" opacity="0"/>
    <path id="패스_19" data-name="패스 19" d="M40.379,16.939a1.451,1.451,0,0,0-.185-.707L33.7,4.73A1.438,1.438,0,0,0,32.449,4H10.93a1.438,1.438,0,0,0-1.252.73l-6.492,11.5A1.451,1.451,0,0,0,3,16.939,5.732,5.732,0,0,0,5.875,21.89V35.629A2.875,2.875,0,0,0,8.751,38.5H17.2a2.875,2.875,0,0,0,2.875-2.875V31.737a1.751,1.751,0,0,1,1.438-1.778,1.613,1.613,0,0,1,1.783,1.6v4.069A2.875,2.875,0,0,0,26.175,38.5h8.453A2.875,2.875,0,0,0,37.5,35.629V21.89a5.732,5.732,0,0,0,2.875-4.951Zm-2.9.342a2.875,2.875,0,0,1-5.731-.342,1.311,1.311,0,0,0-.04-.2,1.243,1.243,0,0,0-.014-.193L28.966,6.875h2.644ZM17.4,6.875h2.851V16.939a2.875,2.875,0,0,1-5.736.144Zm5.726,0h2.851l2.885,10.207a2.875,2.875,0,0,1-5.736-.144Zm-11.358,0h2.644l-2.732,9.673a1.242,1.242,0,0,0-.014.193,1.311,1.311,0,0,0-.042.2,2.875,2.875,0,0,1-5.731.342ZM34.629,35.629H26.175V31.56A4.486,4.486,0,0,0,21.23,27.1,4.624,4.624,0,0,0,17.2,31.743v3.886H8.751V22.69a5.736,5.736,0,0,0,4.313-1.951A5.709,5.709,0,0,0,21.69,20.7a5.709,5.709,0,0,0,8.626.036,5.736,5.736,0,0,0,4.313,1.951Z" transform="translate(75 1453)" fill="#999" stroke="#fff" stroke-width="1"/>
  </g>
</svg>
